#!OML:ASF E:/inclinewalkrobotboard/Project1/Captureday1/Session1/subject1.ASF
:FULLY-SPECIFIED
:DEGREES
176
root 0 0 0 1.0531022639263758 -3.6792511902533267 1.8629713626983493
lowerback 11.924779332220135 0.8571732274075918 -0.05837571622211071
upperback -4.224359815970658 1.0869456296114046 -0.5565944635402876
thorax -11.298094618139805 0.4962731329598841 -0.8002874200960861
lowerneck -5.6673325442038855 1.446164983478015 4.565709172497706
upperneck 18.081041815753156 2.882434613515933 -8.319018107813577
head 6.58849255368792 1.0476411175556049 -3.2217299831068003
rclavicle -8.987391332189915E-16 -3.436109355006649E-16
rhumerus 20.16008004136732 14.70975938514206 -48.14003480771994
rradius 72.54501928837405
rwrist 26.737098370840986
rhand -34.75662626739277 -57.3941960880567
rfingers 7.125020000000038
rthumb -7.917899562636154 -87.308962567243
lclavicle 8.999463743259129E-16 -1.7502970389272795E-15
lhumerus 20.85109197451794 -12.751328059679077 45.28199716921339
lradius 69.9459179030676
lwrist -22.275506228343133
lhand -44.77501008982186 -69.72581683397527
lfingers 7.125020000000029
lthumb -17.5664040461412 -40.52762298593602
rfemur -24.894406004809568 -2.212296456365361 17.20837740453598
rtibia 54.048803604803304
rfoot -29.079425043138144 -16.732947481884125
rtoes -17.67182714361872
lfemur -26.677788632810106 2.405943262500525 -18.294789629190245
ltibia 54.166729561109676
lfoot -31.060959033721026 -3.5289034577427163
ltoes -19.630517369167343
177
root 0 0 0 1.0538288276636258 -3.6778957222274022 1.863138218962532
lowerback 11.924860339880226 0.8573001009870467 -0.05860203172302961
upperback -4.224769246758482 1.0870616339721058 -0.5568445856473144
thorax -11.298602022638198 0.49633287114515867 -0.8004665158369637
lowerneck -5.669526771908124 1.4464243512491954 4.565427673596537
upperneck 18.082312329524513 2.8826703581990945 -8.31806946243794
head 6.589273392290346 1.04773861558263 -3.221362279071993
rclavicle -9.093860931123729E-16 -3.34724168037588E-16
rhumerus 20.16055390994373 14.709341388179762 -48.13970784805991
rradius 72.54527087090162
rwrist 26.737681821904026
rhand -34.757338517662866 -57.39536686518116
rfingers 7.125020000000038
rthumb -7.918637592771736 -87.30947954898714
lclavicle 8.925703798470298E-16 -1.7439618324819802E-15
lhumerus 20.851404078219492 -12.751572897029304 45.28253714520949
lradius 69.94608638085279
lwrist -22.275014916367443
lhand -44.77544616856156 -69.72700322603728
lfingers 7.1250200000000286
lthumb -17.566905715805408 -40.52890909767845
rfemur -24.893705080144965 -2.21179361067672 17.207450516185315
rtibia 54.04906152719638
rfoot -29.078825356974516 -16.733970848710417
rtoes -17.672415546753776
lfemur -26.67929325934334 2.4062043124632577 -18.294826954266778
ltibia 54.164016526429755
lfoot -31.063089699860527 -3.5261038053781104
ltoes -19.631323699958152
178
root 0 0 0 1.053364737223458 -3.67877892253366 1.8630349931053152
lowerback 11.92477671509011 0.8572207362779928 -0.05848390134301662
upperback -4.224523967268423 1.0869870169208042 -0.5566948082105976
thorax -11.298282133880765 0.4962950368165101 -0.8003463439332011
lowerneck -5.6682784720526875 1.446303057021748 4.56562021212403
upperneck 18.081628361845095 2.8825870433399903 -8.318643690807294
head 6.588842644736746 1.0477026154614208 -3.221583454413665
rclavicle -8.99170660077299E-16 -3.438706469907245E-16
rhumerus 20.159908918024982 14.70953876401406 -48.14014162849266
rradius 72.54489230381888
rwrist 26.737154481521472
rhand -34.75699250814668 -57.3946686343497
rfingers 7.125020000000038
rthumb -7.918244800243403 -87.30942525952884
lclavicle 8.999252682546069E-16 -1.750465679708765E-15
lhumerus 20.851015582306115 -12.751134591040106 45.28222562213545
lradius 69.94572576391768
lwrist -22.275415495481237
lhand -44.77511281547032 -69.72654159215278
lfingers 7.1250200000000286
lthumb -17.56649792708092 -40.52834643314631
rfemur -24.894418926537433 -2.212268567948792 17.20827268647838
rtibia 54.04866266373522
rfoot -29.079535937004156 -16.732999805313195
rtoes -17.672066885188443
lfemur -26.67761569765615 2.4058431519123142 -18.29481017307393
ltibia 54.165387245737236
lfoot -31.061654588306524 -3.5284505386705605
ltoes -19.63122451054977
179
root 0 0 0 1.0531887037119823 -3.679090834304656 1.8629965600372573
lowerback 11.92477586230485 0.8571896374840965 -0.05841145651210167
upperback -4.224415264206438 1.0869599285928129 -0.5566299003281356
thorax -11.298156410317297 0.49628073471160455 -0.8003091801363427
lowerneck -5.667649360022857 1.446213199940912 4.565687622427404
upperneck 18.08124190472735 2.8824890876474463 -8.31890127063037
head 6.588611046954434 1.047662954795612 -3.221684900643932
rclavicle -8.983079445728892E-16 -3.432265578653323E-16
rhumerus 20.159986544082386 14.709678913659875 -48.140106743903424
rradius 72.5449594653265
rwrist 26.737076317513335
rhand -34.7567354723235 -57.3942554969029
rfingers 7.125020000000038
rthumb -7.918001319481012 -87.30902744487915
lclavicle 9.003045029533677E-16 -1.7499011320290083E-15
lhumerus 20.8511055566501 -12.751385367155985 45.282016446353296
lradius 69.94593932586034
lwrist -22.275474039152957
lhand -44.775002154002465 -69.72571184632608
lfingers 7.125020000000029
lthumb -17.566392365542608 -40.52751785302196
rfemur -24.894390922868915 -2.2122916000159467 17.208356487147395
rtibia 54.048716342009776
rfoot -29.07945214664212 -16.732947056160775
rtoes -17.671980413376897
lfemur -26.67752420080916 2.405837490729011 -18.29477512330589
ltibia 54.16627779450373
lfoot -31.061209463300326 -3.528846693362426
ltoes -19.631055054073123
180
root 0 0 0 1.0529325347136378 -3.6795616661143526 1.8629346008066996
lowerback 11.924770976480385 0.8571436569542878 -0.0583063029045387
upperback -4.2242534354023435 1.0869199167353623 -0.5565326906636142
thorax -11.297967305216421 0.49625967109454594 -0.8002516467703041
lowerneck -5.6667423685652984 1.4460831620000545 4.56578081657254
upperneck 18.080682662090883 2.882348391815648 -8.319269655152972
head 6.588276594363702 1.0476060426481062 -3.221829420140827
rclavicle -8.971832542119472E-16 -3.437076624737846E-16
rhumerus 20.160338334464438 14.710073518206606 -48.139940905118756
rradius 72.54519480505566
rwrist 26.736999754708155
rhand -34.756156921014586 -57.3935215099235
rfingers 7.125020000000038
rthumb -7.917448353305893 -87.30828247106129
lclavicle 9.017793005420634E-16 -1.7502420147072504E-15
lhumerus 20.85133908418366 -12.751764125858955 45.28159874133755
lradius 69.94621468703988
lwrist -22.275545598928492
lhand -44.77480900443304 -69.7245686390689
lfingers 7.125020000000029
lthumb -17.56620762489807 -40.52635262091239
rfemur -24.89440829648465 -2.2122903479337213 17.208379658835085
rtibia 54.04878599246616
rfoot -29.07944535481029 -16.732920689086967
rtoes -17.671866586855867
lfemur -26.67731365926207 2.4059428303443897 -18.294764585272013
ltibia 54.166423378471215
lfoot -31.06096481644645 -3.528826148534172
ltoes -19.631251611885652
181
root 0 0 0 1.0527466878642748 -3.679901588193168 1.8628925103518315
lowerback 11.924764464861212 0.8571110752034719 -0.05822941196653694
upperback -4.224135978030931 1.086891731766714 -0.5564639785635475
thorax -11.297828303366071 0.49624487103775605 -0.8002119988264652
lowerneck -5.666091502212176 1.4459914157036717 4.565855982150232
upperneck 18.08028232850317 2.882250608711379 -8.31954333192796
head 6.588036975235413 1.047566322747191 -3.221937412018055
rclavicle -8.958285079153872E-16 -3.4389405105510236E-16
rhumerus 20.16058695941058 14.71037387943297 -48.13983554337173
rradius 72.54536157902967
rwrist 26.736915192458216
rhand -34.755687681752924 -57.39286087315527
rfingers 7.125020000000038
rthumb -7.916997898087427 -87.30762038354297
lclavicle 9.033400985563049E-16 -1.7502844661266153E-15
lhumerus 20.851570182687492 -12.752167609466639 45.281229785267705
lradius 69.94649433551967
lwrist -22.275585217583462
lhand -44.774629686582585 -69.72343570150714
lfingers 7.125020000000029
lthumb -17.566032725942478 -40.52520246041737
rfemur -24.894426895498192 -2.2122901994375255 17.208385558770114
rtibia 54.04880029878622
rfoot -29.079479895381365 -16.732905287629052
rtoes -17.671861601977138
lfemur -26.67699409336451 2.405979019463551 -18.294746651394743
ltibia 54.166279455991116
lfoot -31.06090407747503 -3.528745523530203
ltoes -19.631738578328633
182
root 0 0 0 1.0535764145077433 -3.678357258401432 1.8630824761872846
lowerback 11.924849558216401 0.8572559957864203 -0.058498366818006714
upperback -4.224610592258016 1.0870233607761366 -0.5567521038073663
thorax -11.29841312551834 0.49631280399145433 -0.8004130104872771
lowerneck -5.66864627790874 1.446301375334319 4.5655320852764225
upperneck 18.081774132489574 2.8825400800249263 -8.318442254525856
head 6.5889503901804085 1.0476856558390317 -3.2215095136595977
rclavicle -9.072840088627453E-16 -3.3488361527196194E-16
rhumerus 20.16091432855898 14.709779483145503 -48.139568596593655
rradius 72.54551489195387
rwrist 26.737548700390416
rhand -34.75667010487408 -57.39441082089064
rfingers 7.125020000000038
rthumb -7.917995392954468 -87.3085180253185
lclavicle 8.950271282333848E-16 -1.743919396268995E-15
lhumerus 20.85174723892863 -12.75217567481416 45.28198640680644
lradius 69.94649935844875
lwrist -22.27507149518922
lhand -44.77517279292315 -69.72529173118427
lfingers 7.1250200000000286
lthumb -17.56663877518426 -40.52716832114281
rfemur -24.893717552772987 -2.2117891296178334 17.207456584306712
rtibia 54.04905449689924
rfoot -29.078862761917883 -16.733939559033008
rtoes -17.67244523399322
lfemur -26.678704319754182 2.40622440745126 -18.294793989726735
ltibia 54.16368073473972
lfoot -31.063055393140832 -3.525994197624792
ltoes -19.63222781138257
183
root 0 0 0 1.053163232436277 -3.679147322385336 1.8629905651114624
lowerback 11.924768087489351 0.8571855380245141 -0.058401060476065914
upperback -4.224397292095074 1.0869564784428758 -0.5566209949779785
thorax -11.29813128344711 0.49627902470885726 -0.8003036933329377
lowerneck -5.66757520729316 1.4462048257821867 4.565703712487567
upperneck 18.08119858183726 2.8824829585959697 -8.318941543037699
head 6.588584685732099 1.0476603051597335 -3.221701108545844
rclavicle -8.974903756628773E-16 -3.439922301705392E-16
rhumerus 20.160197963598208 14.709889910807703 -48.140030130688174
rradius 72.54508815304636
rwrist 26.737047875174323
rhand -34.75645741486841 -57.393903600794445
rfingers 7.125020000000038
rthumb -7.917730723636751 -87.30865575217848
lclavicle 9.018873330586498E-16 -1.7504267101317979E-15
lhumerus 20.85129058561594 -12.75161763741184 45.28178458061892
lradius 69.94605672459122
lwrist -22.275460647471448
lhand -44.774893964078444 -69.72517058372661
lfingers 7.125020000000029
lthumb -17.56628421326125 -40.52695199948677
rfemur -24.89442861666962 -2.2122650199310554 17.20827763005103
rtibia 54.04865654989386
rfoot -29.079565319431516 -16.732974598568546
rtoes -17.672090901665765
lfemur -26.677141725985763 2.4058586719035358 -18.294783397680934
ltibia 54.16511843260466
lfoot -31.06162665337115 -3.5283639696776263
ltoes -19.63195258794387
